<svg width="24.000000" height="24.000000" viewBox="0 0 24 24" fill="none" xmlns="http://www.w3.org/2000/svg" xmlns:xlink="http://www.w3.org/1999/xlink">
	<desc>
			Created with Pixso.
	</desc>
	<defs>
		<clipPath id="clip67_6398">
			<rect id="mdi:exit-to-app" width="24.000000" height="24.000000" fill="white" fill-opacity="0"/>
		</clipPath>
	</defs>
	<rect id="mdi:exit-to-app" width="24.000000" height="24.000000" fill="#FFFFFF" fill-opacity="0"/>
	<g clip-path="url(#clip67_6398)">
		<path id="Vector" d="M19 3L5 3C3.88 3 3 3.88 3 5L3 9L5 9L5 5L19 5L19 19L5 19L5 15L3 15L3 19C3 19.53 3.21 20.03 3.58 20.41C3.96 20.78 4.46 21 5 21L19 21C19.53 21 20.03 20.78 20.41 20.41C20.78 20.03 21 19.53 21 19L21 5C21 4.46 20.78 3.96 20.41 3.58C20.03 3.21 19.53 3 19 3ZM10.08 15.58L11.5 17L16.5 12L11.5 7L10.08 8.4L12.66 11L3 11L3 13L12.66 13L10.08 15.58Z" fill="#FFFFFF" fill-opacity="1.000000" fill-rule="nonzero"/>
	</g>
</svg>
