<svg width="24.000000" height="24.000000" viewBox="0 0 24 24" fill="none" xmlns="http://www.w3.org/2000/svg" xmlns:xlink="http://www.w3.org/1999/xlink">
	<desc>
			Created with Pixso.
	</desc>
	<defs/>
	<rect id="mdi:book-open-blank-variant-outline" width="24.000000" height="24.000000" fill="#FFFFFF" fill-opacity="0"/>
	<path id="Vector" d="M12 21.5C10.64 20.65 8.19 20 6.5 20C4.85 20 3.14 20.29 1.75 21.05C1.64 21.1 1.6 21.1 1.5 21.1C1.25 21.1 1 20.85 1 20.6L1 6C1.6 5.55 2.25 5.25 3 5C4.11 4.65 5.33 4.5 6.5 4.5C8.44 4.5 10.55 4.9 12 6C13.45 4.9 15.55 4.5 17.5 4.5C18.66 4.5 19.88 4.65 21 5C21.75 5.25 22.39 5.55 23 6L23 20.6C23 20.85 22.75 21.1 22.5 21.1C22.39 21.1 22.35 21.1 22.25 21.05C20.85 20.29 19.14 20 17.5 20C15.8 20 13.35 20.65 12 21.5ZM11 7.5C9.63 6.9 7.84 6.5 6.5 6.5C5.3 6.5 4.1 6.65 3 7L3 18.5C4.1 18.15 5.3 18 6.5 18C7.84 18 9.63 18.4 11 19L11 7.5ZM13 19C14.36 18.4 16.15 18 17.5 18C18.7 18 19.89 18.15 21 18.5L21 7C19.89 6.65 18.7 6.5 17.5 6.5C16.15 6.5 14.36 6.9 13 7.5L13 19Z" fill="#FFFFFF" fill-opacity="1.000000" fill-rule="nonzero"/>
</svg>
