<svg width="48.000000" height="48.000000" viewBox="0 0 48 48" fill="none" xmlns="http://www.w3.org/2000/svg" xmlns:xlink="http://www.w3.org/1999/xlink">
	<desc>
			Created with Pixso.
	</desc>
	<defs>
		<clipPath id="clip67_8911">
			<rect id="mdi:bell" width="28.000000" height="28.000000" transform="translate(10.000000 10.000000)" fill="white" fill-opacity="0"/>
		</clipPath>
		<clipPath id="clip67_8910">
			<rect id="Frame 283" rx="24.000000" width="48.000000" height="48.000000" fill="white" fill-opacity="0"/>
		</clipPath>
	</defs>
	<rect id="Frame 283" rx="24.000000" width="48.000000" height="48.000000" fill="#5B7E9A" fill-opacity="1.000000"/>
	<g clip-path="url(#clip67_8910)">
		<rect id="mdi:bell" width="28.000000" height="28.000000" transform="translate(10.000000 10.000000)" fill="#FFFFFF" fill-opacity="0"/>
		<g clip-path="url(#clip67_8911)">
			<path id="Vector" d="M34.5 32.16L34.5 33.33L13.5 33.33L13.5 32.16L15.83 29.83L15.83 22.83C15.83 19.21 18.2 16.03 21.66 15L21.66 14.66C21.66 14.04 21.91 13.45 22.35 13.01C22.78 12.57 23.38 12.33 24 12.33C24.61 12.33 25.21 12.57 25.64 13.01C26.08 13.45 26.33 14.04 26.33 14.66L26.33 15C29.79 16.03 32.16 19.21 32.16 22.83L32.16 29.83L34.5 32.16ZM26.33 34.5C26.33 35.11 26.08 35.71 25.64 36.14C25.21 36.58 24.61 36.83 24 36.83C23.38 36.83 22.78 36.58 22.35 36.14C21.91 35.71 21.66 35.11 21.66 34.5L26.33 34.5Z" fill="#FFFFFF" fill-opacity="1.000000" fill-rule="nonzero"/>
		</g>
	</g>
</svg>
