<svg width="24.000000" height="24.000000" viewBox="0 0 24 24" fill="none" xmlns="http://www.w3.org/2000/svg" xmlns:xlink="http://www.w3.org/1999/xlink">
	<desc>
			Created with Pixso.
	</desc>
	<defs>
		<clipPath id="clip67_8889">
			<rect id="mdi:pencil-circle-outline" width="24.000000" height="24.000000" fill="white" fill-opacity="0"/>
		</clipPath>
	</defs>
	<rect id="mdi:pencil-circle-outline" width="24.000000" height="24.000000" fill="#FFFFFF" fill-opacity="0"/>
	<g clip-path="url(#clip67_8889)">
		<path id="Vector" d="M7 14.93L13.06 8.88L15.12 10.93L9.06 17L7 17L7 14.93ZM12 20C14.12 20 16.15 19.15 17.65 17.65C19.15 16.15 20 14.12 20 12C20 9.87 19.15 7.84 17.65 6.34C16.15 4.84 14.12 4 12 4C9.87 4 7.84 4.84 6.34 6.34C4.84 7.84 4 9.87 4 12C4 14.12 4.84 16.15 6.34 17.65C7.84 19.15 9.87 20 12 20ZM16.7 9.34L15.7 10.35L13.64 8.3L14.64 7.3C14.86 7.07 15.21 7.07 15.41 7.3L16.7 8.57C16.91 8.79 16.91 9.14 16.7 9.34ZM12 2C13.31 2 14.61 2.25 15.82 2.76C17.04 3.26 18.14 4 19.07 4.92C19.99 5.85 20.73 6.95 21.23 8.17C21.74 9.38 22 10.68 22 12C22 14.65 20.94 17.19 19.07 19.07C17.19 20.94 14.65 22 12 22C10.68 22 9.38 21.74 8.17 21.23C6.95 20.73 5.85 19.99 4.92 19.07C3.05 17.19 2 14.65 2 12C2 9.34 3.05 6.8 4.92 4.92C6.8 3.05 9.34 2 12 2Z" fill="#FFFFFF" fill-opacity="1.000000" fill-rule="nonzero"/>
	</g>
</svg>
