<svg width="18.000000" height="18.000000" viewBox="0 0 18 18" fill="none" xmlns="http://www.w3.org/2000/svg" xmlns:xlink="http://www.w3.org/1999/xlink">
	<desc>
			Created with Pixso.
	</desc>
	<defs/>
	<path id="Vector" d="M6.5 0C8.22 0 9.87 0.68 11.09 1.9C12.31 3.12 13 4.77 13 6.5C13 8.1 12.4 9.58 11.43 10.73L11.71 11L12.5 11L17.5 16L16 17.5L11 12.5L11 11.71L10.73 11.43C9.55 12.44 8.05 13 6.5 13C4.77 13 3.12 12.31 1.9 11.09C0.68 9.87 0 8.22 0 6.5C0 4.77 0.68 3.12 1.9 1.9C3.12 0.68 4.77 0 6.5 0ZM6.5 2C4 2 2 4 2 6.5C2 9 4 11 6.5 11C9 11 11 9 11 6.5C11 4 9 2 6.5 2Z" fill="#35536B" fill-opacity="1.000000" fill-rule="nonzero"/>
</svg>
